<svg xmlns="http://www.w3.org/2000/svg" viewBox="0 0 512 512">
  <defs>
    <linearGradient id="goldGradient" x1="0%" y1="0%" x2="100%" y2="100%">
      <stop offset="0%" style="stop-color:#E5C558;stop-opacity:1" />
      <stop offset="50%" style="stop-color:#D4AF37;stop-opacity:1" />
      <stop offset="100%" style="stop-color:#997B1B;stop-opacity:1" />
    </linearGradient>
  </defs>
  
  <!-- Background: Deep Black with slight rounded corners for app icon look -->
  <rect width="512" height="512" rx="100" fill="#050505"/>
  
  <!-- Shield Outline -->
  <path d="M256 64 L112 128 V256 C112 360 256 448 256 448 C256 448 400 360 400 256 V128 L256 64 Z" 
        fill="none" 
        stroke="url(#goldGradient)" 
        stroke-width="16" 
        stroke-linejoin="round"/>
        
  <!-- Monogram 'P' for Premium -->
  <path d="M200 160 H280 C330 160 350 190 350 230 C350 280 320 300 280 300 H232 V360 H200 V160 Z M232 192 V268 H280 C300 268 318 260 318 230 C318 200 300 192 280 192 H232 Z" 
        fill="url(#goldGradient)"/>
</svg>