<?xml version="1.0" standalone="no"?>
<!DOCTYPE svg PUBLIC "-//W3C//DTD SVG 20010904//EN"
 "http://www.w3.org/TR/2001/REC-SVG-20010904/DTD/svg10.dtd">
<svg version="1.0" xmlns="http://www.w3.org/2000/svg"
 width="1024.000000pt" height="1024.000000pt" viewBox="0 0 1024.000000 1024.000000"
 preserveAspectRatio="xMidYMid meet">

<g transform="translate(0.000000,1024.000000) scale(0.100000,-0.100000)"
fill="#000000" stroke="none">
<path d="M0 5120 l0 -5120 5120 0 5120 0 0 5120 0 5120 -5120 0 -5120 0 0
-5120z m6245 3433 c166 -83 275 -188 339 -325 24 -51 46 -103 50 -114 4 -12
31 -38 60 -57 59 -39 282 -223 305 -251 8 -9 23 -22 33 -27 10 -5 -26 44 -79
109 -122 148 -178 245 -225 386 -20 61 -35 113 -33 114 7 8 122 -75 182 -131
114 -107 146 -176 173 -376 l18 -133 44 -47 c99 -103 185 -220 284 -386 205
-343 327 -823 310 -1220 -7 -166 -12 -203 -51 -415 -36 -190 -64 -287 -132
-445 -80 -187 -139 -290 -270 -471 -132 -180 -218 -270 -385 -399 -119 -92
-150 -127 -56 -63 112 76 327 169 448 194 81 16 200 9 207 -12 5 -14 -123
-115 -202 -159 -125 -70 -233 -86 -450 -66 l-80 7 -99 -65 c-185 -121 -509
-257 -768 -322 -64 -16 -123 -32 -131 -35 -9 -3 -16 3 -20 15 -4 18 3 22 72
37 270 58 436 118 681 246 253 132 378 224 571 417 176 177 262 298 395 557
118 231 216 573 234 822 26 359 2 602 -92 907 -61 200 -226 545 -261 545 -6 0
-68 18 -137 40 -149 47 -227 91 -328 185 l-75 70 34 7 c46 10 148 -8 222 -37
90 -37 144 -84 260 -225 26 -32 27 -32 11 -5 -56 96 -304 382 -323 371 -14 -8
-257 15 -314 30 -58 15 -277 122 -277 135 0 10 108 29 159 29 115 -1 241 -48
353 -133 60 -46 77 -54 53 -28 -31 36 -213 180 -287 228 l-68 44 -168 -7
c-192 -8 -229 -1 -411 79 -85 37 -92 41 -70 50 13 5 78 10 144 10 141 0 237
-20 389 -82 55 -23 101 -39 103 -37 2 2 -54 49 -125 104 -71 55 -148 122 -172
149 -41 47 -140 199 -140 216 0 11 33 0 95 -30z m-2145 19 c0 -19 -81 -132
-140 -195 -34 -37 -115 -106 -179 -154 -148 -110 -157 -119 -96 -92 228 99
289 113 458 107 67 -2 131 -9 142 -15 18 -11 12 -15 -55 -46 -41 -19 -113 -47
-160 -62 -82 -26 -90 -27 -246 -21 -190 7 -204 3 -332 -94 -74 -56 -228 -190
-218 -190 3 0 38 25 78 55 97 72 162 103 245 114 63 9 236 1 249 -11 10 -11
-118 -87 -196 -117 -86 -33 -170 -48 -311 -56 -82 -4 -93 -7 -128 -36 -87 -69
-318 -379 -394 -527 -115 -224 -195 -478 -233 -742 -22 -150 -21 -507 0 -671
30 -223 134 -542 239 -738 156 -289 307 -469 587 -703 94 -78 238 -167 420
-258 206 -103 325 -149 493 -191 202 -50 197 -48 191 -64 -9 -21 -25 -19 -170
20 -246 67 -549 200 -749 330 l-80 51 -75 -7 c-112 -11 -252 -10 -312 2 -74
16 -195 80 -274 147 -37 31 -69 62 -71 68 -8 26 160 32 247 9 103 -27 349
-138 448 -203 51 -33 10 9 -46 47 -95 65 -244 195 -300 263 -352 424 -458 643
-557 1148 -49 251 -45 607 10 886 30 150 119 422 178 548 70 147 234 386 353
517 57 62 60 66 63 124 9 186 61 325 157 420 55 56 179 145 201 145 16 0 1
-50 -47 -161 -51 -118 -95 -188 -197 -317 -117 -146 -112 -140 -88 -122 11 8
40 34 65 56 73 67 109 96 218 178 59 44 108 90 114 105 62 150 99 209 176 283
60 55 106 88 181 126 96 49 141 63 141 44z m-1071 -663 c-9 -105 -26 -181 -66
-292 -38 -107 -131 -299 -141 -293 -15 9 -35 211 -28 279 10 98 32 159 87 241
41 63 146 173 154 164 2 -2 -1 -46 -6 -99z m4278 2 c128 -161 155 -283 111
-517 -6 -35 -14 -64 -18 -64 -9 0 -158 364 -175 430 -8 30 -18 100 -22 154
l-6 100 32 -23 c18 -13 53 -49 78 -80z m-3837 -215 c0 -9 -122 -121 -173 -159
-74 -56 -119 -77 -232 -108 -55 -15 -108 -30 -119 -35 -16 -6 -17 -4 -8 12 20
38 144 175 184 204 55 40 140 71 218 80 82 9 130 11 130 6z m-840 -240 c33
-99 40 -210 24 -361 -17 -167 -35 -286 -44 -303 -9 -18 -73 124 -102 225 -26
93 -27 205 -3 290 19 67 85 213 96 213 4 0 17 -29 29 -64z m5034 -3 c75 -150
93 -293 56 -436 -22 -85 -85 -234 -92 -221 -13 23 -39 170 -58 338 -13 107 0
249 31 331 11 30 22 55 25 55 2 0 19 -30 38 -67z m-4550 -175 c-81 -161 -177
-252 -421 -401 -16 -10 15 80 56 161 39 77 97 142 174 194 67 45 174 98 200
98 15 0 14 -6 -9 -52z m4092 18 c102 -48 188 -110 231 -168 33 -46 128 -247
120 -255 -2 -2 -15 5 -28 16 -13 10 -64 42 -113 71 -106 62 -163 113 -221 195
-40 55 -95 154 -95 169 0 14 35 4 106 -28z m-1777 -360 c51 -8 96 -18 100 -21
3 -4 8 -81 9 -171 4 -161 3 -164 -17 -164 -12 0 -24 8 -27 18 -26 89 -117 198
-201 241 -23 11 -74 26 -113 32 -235 36 -442 -122 -506 -387 -12 -46 -17 -112
-18 -199 0 -110 4 -141 23 -200 55 -166 143 -275 272 -341 67 -33 79 -36 163
-36 94 0 163 17 198 49 16 14 18 34 18 165 0 161 -7 188 -55 226 -14 12 -39
24 -55 27 -21 5 -30 13 -30 26 0 18 9 19 188 19 103 0 204 3 225 6 32 6 37 4
37 -13 0 -12 -12 -25 -32 -34 -17 -8 -41 -27 -52 -42 -20 -27 -21 -40 -19
-223 2 -178 1 -194 -16 -203 -31 -17 -342 -92 -405 -98 -73 -6 -209 17 -305
53 -274 102 -422 374 -382 702 19 158 75 278 182 396 84 91 217 163 340 185
74 14 363 6 478 -13z m-3030 -86 c65 -98 112 -294 126 -520 l6 -95 -41 45
c-116 127 -175 241 -188 362 -7 73 0 235 13 285 l6 27 25 -30 c13 -16 37 -49
53 -74z m4335 74 c58 -9 112 -22 120 -28 23 -17 25 -320 3 -324 -10 -2 -20 12
-31 45 -46 138 -193 243 -341 243 -266 0 -475 -247 -475 -559 1 -247 111 -441
305 -537 75 -37 84 -39 193 -43 110 -3 115 -2 177 28 73 36 118 83 152 158 14
30 31 53 40 53 13 0 14 -14 8 -99 -12 -174 -4 -160 -130 -199 -193 -58 -355
-62 -498 -13 -130 45 -189 82 -283 176 -100 99 -150 184 -180 305 -20 79 -22
225 -4 300 33 142 159 321 284 404 66 44 185 92 258 105 70 13 270 6 402 -15z
m1202 -149 c4 -66 2 -134 -5 -170 -15 -81 -68 -184 -143 -279 l-63 -79 -3 36
c-2 20 4 108 12 194 21 222 54 320 145 432 l35 45 8 -35 c5 -19 11 -83 14
-144z m-3933 150 c127 -33 227 -107 274 -204 25 -51 28 -66 28 -166 0 -101 -2
-115 -29 -170 -78 -159 -227 -230 -466 -223 l-95 3 -3 28 c-3 24 0 27 25 27
40 1 133 24 177 45 48 23 118 93 142 142 29 58 32 216 6 276 -58 131 -192 194
-366 173 l-56 -7 0 -516 c0 -534 3 -574 42 -609 10 -10 41 -25 69 -34 28 -10
46 -21 40 -24 -6 -4 -9 -12 -6 -17 4 -5 -88 -9 -234 -9 -234 0 -241 1 -241 20
0 11 5 20 11 20 6 0 26 7 44 16 64 30 65 36 65 589 0 283 -4 504 -9 518 -15
38 -49 65 -92 72 -29 5 -39 11 -39 26 0 17 9 19 98 20 53 1 165 5 247 9 254
11 308 11 368 -5z m-1088 -131 c-31 -141 -105 -256 -246 -384 l-90 -83 7 44
c11 83 37 174 61 224 33 64 102 161 145 202 41 39 132 93 136 81 2 -5 -4 -43
-13 -84z m4483 38 c70 -46 166 -152 197 -216 26 -53 59 -178 68 -256 l6 -45
-123 126 c-109 111 -129 137 -170 220 -25 52 -52 122 -60 157 -14 63 -14 63 7
57 12 -4 46 -23 75 -43z m80 -497 c67 -73 122 -176 148 -275 21 -77 24 -264 6
-295 -6 -11 -12 -15 -12 -8 0 7 -30 56 -66 110 -78 114 -109 180 -129 274 -20
94 -31 259 -17 259 5 0 37 -29 70 -65z m-4638 28 c0 -48 -29 -226 -44 -274
-17 -56 -61 -144 -92 -184 -12 -16 -38 -56 -58 -88 l-35 -59 -7 38 c-4 20 -4
85 -1 143 6 118 31 201 88 297 34 57 122 154 139 154 6 0 10 -12 10 -27z
m-492 -167 c34 -36 67 -86 92 -139 41 -88 130 -341 130 -371 0 -21 -178 120
-234 186 -84 98 -126 252 -117 426 1 18 60 -29 129 -102z m5658 -87 c-27 -131
-72 -204 -194 -319 -59 -56 -115 -106 -126 -112 -17 -9 -18 -7 -11 28 8 48
109 322 140 384 32 62 77 116 143 173 l57 48 3 -64 c2 -35 -4 -97 -12 -138z
m-540 -344 c71 -153 82 -334 28 -489 l-27 -79 -29 79 c-84 226 -97 328 -62
515 l17 93 20 -25 c11 -13 35 -56 53 -94z m-4621 83 c35 -155 40 -246 21 -351
-19 -99 -91 -310 -99 -287 -41 121 -49 156 -54 245 -7 119 15 222 72 341 37
77 51 89 60 52z m-505 -212 c41 -25 99 -68 128 -96 65 -63 309 -430 287 -430
-18 0 -231 113 -277 146 -94 69 -169 189 -203 324 -9 36 -18 73 -21 83 -8 25
3 22 86 -27z m5630 -38 c-63 -210 -141 -304 -341 -411 -70 -37 -130 -67 -133
-67 -14 0 0 26 95 176 103 163 169 242 249 297 56 39 143 87 148 82 3 -2 -6
-37 -18 -77z m-4946 -278 c33 -62 63 -163 75 -252 9 -62 7 -98 -9 -202 -10
-71 -20 -130 -22 -132 -7 -7 -90 127 -112 180 -18 44 -21 71 -20 191 0 131 8
187 36 258 12 32 14 30 52 -43z m4271 -80 c33 -209 10 -328 -93 -483 l-26 -39
-18 104 c-23 138 -23 241 2 339 23 89 62 184 88 212 16 18 17 18 24 -10 5 -15
15 -71 23 -123z m-1501 -92 c-19 -61 -35 -113 -37 -114 -1 -1 -70 -4 -154 -7
l-152 -5 10 26 c5 14 26 63 45 108 36 83 36 83 77 88 23 3 53 7 67 10 14 2 59
4 101 5 l77 1 -34 -112z m496 67 c110 -26 210 -57 210 -67 0 -23 -95 -238
-105 -238 -7 0 -36 8 -66 18 -30 11 -88 27 -129 37 -41 10 -78 20 -82 24 -6 5
42 163 67 224 9 21 21 21 105 2z m-3700 -205 c86 -23 127 -49 296 -186 93 -76
199 -182 191 -190 -9 -9 -311 67 -355 90 -71 36 -167 128 -224 215 -26 40 -48
79 -48 86 0 13 58 7 140 -15z m5200 25 c0 -10 -53 -90 -104 -158 -34 -46 -73
-83 -116 -111 -80 -52 -97 -59 -234 -92 -60 -14 -120 -30 -133 -35 -40 -15
-26 10 50 89 110 115 265 234 347 267 85 34 190 56 190 40z m-1852 -30 c61 -8
122 -17 136 -21 l24 -6 -18 -51 c-9 -29 -32 -87 -51 -131 -32 -77 -33 -78 -63
-72 -17 3 -67 12 -111 20 -44 9 -104 15 -132 16 -29 0 -53 2 -53 5 0 2 18 51
41 107 23 57 45 113 50 126 10 27 25 27 177 7z m-552 -132 l-43 -128 -92 -12
c-50 -7 -107 -16 -126 -22 -26 -7 -35 -6 -35 2 0 20 20 89 46 159 l26 68 70
20 c75 23 140 37 175 39 21 1 20 -2 -21 -126z m-2006 -105 c72 -106 98 -186
110 -328 5 -58 7 -107 5 -109 -6 -5 -103 81 -136 122 -82 102 -146 328 -125
442 l7 38 40 -39 c22 -21 67 -78 99 -126z m3630 70 c0 -103 -30 -231 -72 -312
-31 -58 -134 -172 -176 -195 -18 -9 -18 -7 -11 37 4 26 13 84 18 130 12 91 40
172 92 259 36 59 125 163 140 163 5 0 9 -37 9 -82z m-1360 -95 c0 -5 -15 -63
-32 -130 l-33 -123 -142 0 c-129 0 -141 1 -137 18 2 9 13 61 24 115 10 54 24
105 31 113 9 11 43 14 150 14 77 0 139 -3 139 -7z m493 -83 c67 -22 127 -43
134 -48 8 -5 -6 -44 -44 -130 -44 -96 -60 -122 -72 -118 -190 64 -267 90 -269
92 -3 2 79 188 99 227 6 9 14 17 20 17 5 0 65 -18 132 -40z m477 -157 c-36
-132 -101 -256 -168 -321 -53 -52 -162 -119 -220 -137 l-23 -7 19 39 c11 21
41 90 68 153 46 109 52 119 138 206 78 78 192 162 204 149 2 -2 -6 -39 -18
-82z m-2919 36 c75 -49 168 -141 202 -201 14 -24 42 -90 62 -148 20 -58 43
-115 51 -127 8 -13 13 -23 10 -23 -10 0 -150 79 -190 107 -24 17 -58 51 -75
76 -81 118 -170 357 -133 357 5 0 38 -19 73 -41z m-64 -459 c174 -30 381 -87
365 -101 -4 -4 -59 -24 -122 -45 -104 -34 -125 -38 -220 -38 -119 0 -207 22
-320 79 -68 34 -126 84 -99 86 8 0 52 9 99 19 112 24 155 24 297 0z m3286 -6
c42 -9 77 -21 77 -25 0 -13 -109 -83 -165 -106 -78 -33 -209 -56 -284 -50 -59
4 -283 68 -304 87 -10 8 100 43 203 65 41 8 111 24 155 35 94 23 199 21 318
-6z m-4038 -861 c22 -12 55 -37 74 -57 28 -29 35 -45 39 -89 11 -133 -94 -227
-255 -227 -45 0 -53 3 -53 19 0 14 10 20 38 25 112 17 175 139 124 235 -27 50
-74 72 -147 69 l-60 -3 1 -262 c1 -285 5 -305 59 -319 14 -3 25 -12 25 -20 0
-11 -25 -14 -124 -14 -128 0 -157 9 -109 32 15 7 30 24 34 38 12 42 10 519 -2
541 -5 11 -21 24 -35 29 -14 6 -22 15 -19 21 5 7 66 9 189 7 163 -3 185 -5
221 -25z m703 -3 c70 -40 101 -109 81 -183 -15 -58 -43 -94 -92 -118 -54 -27
-53 -26 -35 -46 9 -10 41 -59 72 -110 57 -93 125 -163 158 -163 30 0 20 -18
-13 -25 -46 -10 -135 4 -162 26 -14 10 -53 65 -88 121 -34 57 -80 120 -101
141 -22 22 -37 44 -35 50 2 7 23 14 48 17 86 11 129 59 129 143 0 99 -57 145
-161 131 l-49 -7 0 -269 0 -269 25 -24 c13 -14 31 -25 40 -25 8 0 15 -7 15
-15 0 -13 -21 -15 -125 -15 -126 0 -149 7 -98 32 21 10 29 23 35 53 9 51 8
482 -1 515 -4 14 -19 31 -34 38 -55 27 -27 32 161 29 177 -3 189 -4 230 -27z
m822 -45 c0 -60 -3 -75 -15 -75 -8 0 -17 11 -21 24 -13 53 -40 65 -154 67
l-105 2 -3 -117 -3 -116 89 0 c76 0 91 3 107 20 10 11 22 20 27 20 4 0 8 -34
8 -75 0 -41 -3 -75 -6 -75 -4 0 -17 11 -30 25 -21 23 -30 25 -109 25 l-87 0 4
-116 c4 -145 3 -144 141 -144 98 0 99 0 128 31 16 17 29 37 29 45 0 8 5 14 11
14 8 0 10 -19 5 -67 -4 -36 -9 -70 -12 -75 -3 -4 -111 -8 -240 -8 -193 0 -234
2 -234 14 0 8 11 17 24 20 13 3 27 14 31 23 10 26 16 491 7 533 -5 24 -16 39
-35 48 -15 7 -27 17 -27 23 0 5 94 9 235 9 l235 0 0 -75z m1023 60 c-1 -5 -10
-14 -20 -20 -38 -21 -38 10 -7 -350 8 -104 20 -200 25 -213 5 -12 20 -27 34
-34 14 -6 25 -17 25 -25 0 -10 -22 -13 -94 -13 -52 0 -101 3 -110 6 -18 7 -22
34 -5 34 22 0 37 63 29 125 -5 33 -14 130 -20 215 -6 85 -13 156 -15 159 -3 2
-9 -9 -15 -25 -6 -16 -57 -136 -112 -267 -117 -276 -120 -278 -170 -162 -31
72 -163 392 -179 434 -5 13 -12 22 -14 19 -2 -2 -11 -94 -20 -204 -8 -109 -18
-209 -20 -222 -7 -30 10 -61 41 -72 13 -5 24 -16 24 -25 0 -12 -17 -15 -95
-15 -78 0 -95 3 -95 15 0 8 6 15 13 15 8 0 23 10 35 23 24 25 33 89 56 367 14
178 11 201 -34 215 -45 14 -15 25 73 25 l94 0 99 -235 c54 -129 103 -233 108
-232 10 3 119 255 162 376 15 42 32 82 37 89 12 16 173 13 170 -3z m487 2 c0
-8 -11 -19 -24 -25 -35 -16 -38 -42 -34 -319 3 -220 5 -243 22 -262 11 -12 27
-21 38 -21 10 0 18 -7 18 -15 0 -13 -21 -15 -125 -15 -125 0 -152 8 -100 32
13 6 29 24 35 41 14 41 14 512 -1 538 -5 11 -21 24 -35 29 -52 20 -23 30 91
30 89 0 115 -3 115 -13z m434 6 c4 -4 -8 -20 -26 -35 l-33 -27 -3 -178 c-2
-111 1 -198 8 -231 36 -164 254 -191 328 -41 21 43 23 60 25 247 2 184 1 202
-17 221 -11 12 -25 21 -33 21 -7 0 -13 7 -13 16 0 13 13 15 86 12 47 -2 88 -6
91 -10 2 -5 -8 -19 -24 -32 l-28 -24 -5 -224 c-5 -205 -7 -226 -28 -265 -69
-131 -294 -167 -412 -66 -69 60 -74 78 -80 329 -4 200 -7 224 -24 243 -11 12
-25 21 -33 21 -7 0 -13 4 -13 10 0 13 221 26 234 13z m813 -5 c6 -7 52 -112
103 -233 51 -121 96 -224 100 -228 11 -13 96 181 180 411 l22 62 94 0 c74 0
94 -3 94 -14 0 -8 -11 -17 -25 -20 -36 -9 -42 -33 -34 -134 4 -48 12 -154 19
-237 13 -175 23 -213 56 -225 13 -5 24 -16 24 -25 0 -12 -18 -15 -105 -15
-116 0 -135 10 -95 50 25 25 25 1 -1 323 -7 92 -15 167 -19 167 -3 0 -18 -35
-33 -77 -15 -43 -63 -161 -106 -263 -61 -144 -83 -186 -98 -188 -19 -3 -62 92
-217 475 -11 29 -24 53 -27 53 -3 0 -9 -39 -12 -87 -4 -49 -11 -153 -17 -231
-12 -155 -10 -165 37 -183 13 -5 23 -15 23 -24 0 -12 -17 -15 -95 -15 -73 0
-95 3 -95 13 0 8 11 19 24 25 16 7 28 24 35 49 13 49 39 278 47 415 l7 107
-31 18 c-18 10 -32 21 -32 25 0 19 163 24 177 6z m-5219 -1034 c38 -5 42 -9
42 -34 0 -15 3 -48 6 -74 6 -38 4 -46 -10 -46 -9 0 -16 5 -16 12 0 19 -50 78
-84 99 -38 23 -112 25 -164 3 -148 -61 -190 -291 -79 -436 45 -59 102 -89 170
-89 89 -1 97 7 97 106 0 86 -12 115 -46 115 -8 0 -14 7 -14 15 0 12 18 14 100
13 75 -1 100 -5 100 -15 0 -7 -6 -13 -14 -13 -25 0 -31 -21 -36 -125 l-5 -100
-90 -23 c-146 -38 -247 -16 -339 74 -62 60 -91 133 -91 229 0 89 20 142 78
203 90 94 188 115 395 86z m4760 0 l32 -6 0 -63 c0 -35 3 -70 6 -79 4 -10 1
-16 -9 -16 -8 0 -17 11 -21 23 -15 62 -94 117 -168 117 -218 -1 -295 -324
-116 -485 54 -48 92 -61 165 -52 54 6 91 31 118 80 11 20 24 37 29 37 9 0 0
-105 -9 -121 -6 -9 -93 -35 -153 -44 -100 -16 -217 30 -286 112 -72 86 -94
233 -47 323 49 93 110 149 193 176 43 14 192 13 266 -2z m1945 7 c21 -5 40
-11 43 -13 2 -3 7 -32 10 -66 6 -50 4 -62 -7 -62 -8 0 -21 15 -30 33 -30 62
-108 94 -162 66 -53 -27 -73 -92 -42 -136 9 -12 61 -46 116 -75 61 -31 111
-65 125 -84 50 -65 40 -179 -20 -232 -48 -42 -145 -59 -243 -43 -67 12 -71 14
-77 43 -9 46 -7 106 4 113 5 3 18 -12 29 -34 31 -60 64 -81 128 -81 47 0 59 4
84 29 24 25 29 38 29 78 0 63 -23 86 -142 142 -103 49 -138 89 -138 159 0 80
37 132 115 160 37 13 127 14 178 3z m-5995 -68 c-3 -75 -18 -90 -37 -38 -19
52 -38 58 -173 56 l-58 -1 0 -110 0 -110 75 0 c68 0 78 3 99 25 13 14 26 25
30 25 3 0 6 -31 6 -70 0 -73 -8 -85 -35 -48 -13 20 -26 23 -95 26 l-80 4 0
-105 c0 -133 4 -137 132 -137 92 0 104 5 134 56 19 31 27 8 18 -48 l-9 -53
-217 -3 c-120 -1 -218 1 -218 5 0 5 13 15 29 24 27 16 30 23 36 90 4 41 5 152
3 247 l-3 174 -27 23 c-16 13 -28 27 -28 30 0 3 95 5 210 5 l211 0 -3 -67z
m579 46 c108 -52 124 -176 33 -253 -18 -14 -38 -26 -45 -26 -26 0 -26 -20 -2
-52 13 -18 44 -66 67 -106 40 -67 92 -122 117 -122 6 0 16 -6 22 -14 9 -11 3
-14 -33 -19 -53 -8 -101 5 -134 35 -14 13 -53 67 -88 120 -35 53 -74 104 -88
114 -35 22 -35 54 -1 54 43 0 94 27 115 62 56 92 -14 204 -123 196 l-42 -3 -3
-239 c-3 -260 0 -276 54 -296 14 -6 22 -14 19 -20 -8 -12 -215 -14 -215 -1 0
5 11 16 25 25 l25 16 0 246 c0 244 -5 284 -35 284 -7 0 -17 5 -20 10 -4 7 49
10 151 10 139 0 163 -2 201 -21z m548 -31 c27 -63 115 -262 145 -333 l22 -50
15 29 c20 38 137 321 153 369 l12 38 76 -3 c77 -3 100 -16 60 -33 -29 -13 -29
-44 -5 -315 17 -184 19 -196 42 -217 14 -12 25 -25 25 -28 0 -3 -40 -5 -90 -5
-99 0 -104 4 -74 57 14 26 14 46 -3 233 l-18 205 -27 -65 c-15 -36 -59 -144
-98 -240 -39 -96 -76 -179 -81 -185 -17 -17 -36 17 -129 235 -50 118 -95 219
-100 223 -9 10 -17 -53 -30 -253 l-10 -145 30 -26 c16 -14 30 -29 30 -32 0 -4
-38 -7 -85 -7 -84 0 -104 9 -65 30 11 6 24 19 30 30 11 21 36 222 46 382 l6
107 -26 12 c-49 23 -29 31 92 37 31 2 35 -2 57 -50z m1060 -55 c135 -388 165
-458 194 -468 47 -15 15 -25 -79 -25 -99 0 -121 8 -80 30 26 14 25 21 -7 102
l-26 68 -102 0 -101 0 -17 -53 c-23 -73 -21 -94 8 -113 14 -9 22 -20 19 -25
-6 -10 -174 -12 -174 -2 0 3 14 18 30 32 24 20 49 71 109 223 44 109 87 221
96 250 26 79 33 88 64 88 27 0 30 -5 66 -107z m549 73 c12 -16 91 -119 176
-230 l155 -200 3 169 c3 201 0 227 -35 255 -14 11 -24 22 -22 24 4 4 113 10
144 7 18 -1 17 -4 -10 -25 l-30 -24 -3 -271 -3 -271 -32 0 c-30 0 -42 13 -189
208 -87 114 -168 221 -182 237 l-25 30 -1 -207 0 -206 30 -25 c17 -14 30 -28
30 -31 0 -3 -38 -6 -85 -6 -47 0 -85 2 -85 4 0 3 14 18 30 34 l30 30 0 231 0
230 -34 28 c-19 15 -32 31 -29 36 3 5 37 7 76 5 64 -3 72 -7 91 -32z m1835 -8
c7 -24 49 -144 94 -268 61 -170 88 -231 109 -252 15 -14 28 -29 28 -32 0 -3
-43 -6 -95 -6 -94 0 -109 6 -80 30 21 17 19 44 -7 112 l-23 58 -103 0 -103 0
-14 -34 c-8 -19 -17 -52 -21 -74 -5 -34 -3 -42 15 -54 43 -26 25 -38 -59 -38
-44 0 -80 3 -80 7 0 4 11 19 25 33 22 23 151 324 219 513 16 43 20 47 50 47
30 0 34 -4 45 -42z m759 26 c45 -19 87 -57 102 -95 26 -61 -14 -147 -83 -180
l-44 -21 31 -50 c108 -172 127 -196 161 -212 51 -24 43 -36 -22 -36 -81 0
-108 20 -185 136 -36 55 -77 110 -92 123 -39 37 -34 57 17 65 52 9 104 56 113
102 7 39 -10 95 -36 119 -23 21 -93 37 -125 29 l-25 -6 0 -242 c0 -202 3 -245
16 -264 8 -12 24 -22 35 -22 10 0 19 -7 19 -15 0 -12 -18 -15 -103 -15 -57 0
-107 3 -110 6 -3 4 5 15 18 26 l25 19 0 249 c0 213 -2 251 -16 264 -8 9 -20
16 -25 16 -5 0 -9 5 -9 10 0 18 294 13 338 -6z"/>
<path d="M4705 1973 c-21 -60 -40 -114 -43 -120 -3 -10 17 -13 82 -13 47 0 86
1 86 3 0 6 -81 231 -84 235 -2 1 -20 -46 -41 -105z"/>
<path d="M7103 1959 l-42 -119 85 0 c46 0 84 4 84 9 0 14 -71 215 -78 223 -4
4 -26 -47 -49 -113z"/>
</g>
</svg>
